<?xml version="1.0" encoding="UTF-8" standalone="no"?>
<!-- Created with Inkscape (http://www.inkscape.org/) -->

<svg
   version="1.0"
   width="600"
   height="600"
   id="svg2424"
   xml:space="preserve"
   xmlns="http://www.w3.org/2000/svg"
   xmlns:svg="http://www.w3.org/2000/svg"><defs
     id="defs2426" /><path
     d="m 299.94358,0 c -26.71054,65.487123 -42.82104,108.3234 -72.55972,171.86383 18.23354,19.32755 40.61434,41.83543 76.9607,67.25597 -39.0759,-16.07948 -65.73044,-32.22291 -85.64981,-48.97498 C 180.63491,269.56252 121.0061,382.68951 0,600.11285 95.106725,545.20609 168.83177,511.35547 237.53997,498.43897 c -2.95036,-12.68943 -4.62776,-26.41555 -4.51383,-40.73726 l 0.11285,-3.04683 c 1.50912,-60.93236 33.20609,-107.78935 70.75418,-104.60786 37.54812,3.18149 66.73385,55.18572 65.22475,116.11811 -0.28383,11.46555 -1.57709,22.49527 -3.83675,32.72522 C 433.2434,512.18497 506.1801,545.94892 600,600.11285 581.50055,566.05406 564.98819,535.35255 549.21948,506.11247 524.38121,486.86116 498.47367,461.8055 445.62723,434.68121 c 36.32361,9.43841 62.33085,20.32781 82.60298,32.49953 C 367.9054,168.68397 354.92253,129.01992 299.94358,0 Z"
     id="path2518"
     style="fill:#1793d1;fill-opacity:1;fill-rule:evenodd;stroke:none;stroke-width:3.61106" /></svg>
